<svg width="15" height="15" viewBox="0 0 15 15" fill="none" xmlns="http://www.w3.org/2000/svg">
<path d="M13.5205 3.35073C13.3242 2.89609 13.041 2.48411 12.687 2.13784C12.3327 1.79053 11.915 1.51453 11.4565 1.32485C10.9812 1.12738 10.4713 1.0263 9.95654 1.02748C9.23438 1.02748 8.52979 1.22524 7.91748 1.59877C7.771 1.68813 7.63184 1.78627 7.5 1.89321C7.36816 1.78627 7.229 1.68813 7.08252 1.59877C6.47021 1.22524 5.76562 1.02748 5.04346 1.02748C4.52344 1.02748 4.01953 1.12709 3.54346 1.32485C3.0835 1.51528 2.66895 1.7892 2.31299 2.13784C1.95849 2.48372 1.67531 2.8958 1.47949 3.35073C1.27588 3.82387 1.17188 4.32632 1.17188 4.84341C1.17188 5.3312 1.27148 5.8395 1.46924 6.35659C1.63477 6.78872 1.87207 7.23696 2.17529 7.6896C2.65576 8.40591 3.31641 9.15298 4.13672 9.91031C5.49609 11.1657 6.84229 12.0329 6.89941 12.068L7.24658 12.2907C7.40039 12.3888 7.59814 12.3888 7.75195 12.2907L8.09912 12.068C8.15625 12.0314 9.50098 11.1657 10.8618 9.91031C11.6821 9.15298 12.3428 8.40591 12.8232 7.6896C13.1265 7.23696 13.3652 6.78872 13.5293 6.35659C13.7271 5.8395 13.8267 5.3312 13.8267 4.84341C13.8281 4.32632 13.7241 3.82387 13.5205 3.35073V3.35073Z" fill="#FF0000"/>
</svg>
