<svg width="32" height="32" viewBox="0 0 32 32" fill="none" xmlns="http://www.w3.org/2000/svg">
<path d="M29.5781 15.7812L16.7062 2.91874C16.6135 2.82587 16.5035 2.7522 16.3823 2.70193C16.2611 2.65167 16.1312 2.62579 16 2.62579C15.8688 2.62579 15.7389 2.65167 15.6177 2.70193C15.4965 2.7522 15.3864 2.82587 15.2937 2.91874L2.42185 15.7812C2.04685 16.1562 1.83435 16.6656 1.83435 17.1969C1.83435 18.3 2.73123 19.1969 3.83435 19.1969H5.1906V28.375C5.1906 28.9281 5.63748 29.375 6.1906 29.375H14V22.375H17.5V29.375H25.8094C26.3625 29.375 26.8094 28.9281 26.8094 28.375V19.1969H28.1656C28.6969 19.1969 29.2062 18.9875 29.5812 18.6094C30.3594 17.8281 30.3594 16.5625 29.5781 15.7812Z" fill="#F79322"/>
</svg>
