<svg width="90" height="90" viewBox="0 0 90 90" fill="none" xmlns="http://www.w3.org/2000/svg">
<path d="M67.5 67.5C68.9918 67.5 70.4226 66.9074 71.4775 65.8525C72.5324 64.7976 73.125 63.3668 73.125 61.875V48.1387C73.125 46.6469 72.5324 45.2162 71.4775 44.1613C70.4226 43.1064 68.9918 42.5138 67.5 42.5138H59.6925C59.6925 40.5394 59.8106 38.5594 60.0412 36.585C60.39 34.4925 60.975 32.6306 61.785 31.005C62.6006 29.3738 63.6469 28.0969 64.9294 27.1631C66.2062 26.1169 67.8319 25.5938 69.8119 25.5938V16.875C66.555 16.875 63.7087 17.5725 61.2619 18.9675C58.8363 20.3484 56.7509 22.255 55.1587 24.5475C53.5608 27.0749 52.3831 29.8445 51.6712 32.7487C50.954 35.9537 50.603 39.2296 50.625 42.5138V61.875C50.625 63.3668 51.2176 64.7976 52.2725 65.8525C53.3274 66.9074 54.7582 67.5 56.25 67.5H67.5ZM33.75 67.5C35.2418 67.5 36.6726 66.9074 37.7275 65.8525C38.7824 64.7976 39.375 63.3668 39.375 61.875V48.1387C39.375 46.6469 38.7824 45.2162 37.7275 44.1613C36.6726 43.1064 35.2418 42.5138 33.75 42.5138H25.9425C25.9425 40.5394 26.0606 38.5594 26.2912 36.585C26.64 34.4925 27.225 32.6306 28.035 31.005C28.8506 29.3738 29.8969 28.0969 31.1794 27.1631C32.4562 26.1169 34.0819 25.5938 36.0619 25.5938V16.875C32.805 16.875 29.9587 17.5725 27.5119 18.9675C25.0863 20.3484 23.0009 22.255 21.4087 24.5475C19.8108 27.0749 18.6331 29.8445 17.9212 32.7487C17.204 35.9537 16.853 39.2296 16.875 42.5138V61.875C16.875 63.3668 17.4676 64.7976 18.5225 65.8525C19.5774 66.9074 21.0082 67.5 22.5 67.5H33.75Z" fill="black"/>
</svg>
