<svg width="22" height="22" viewBox="0 0 22 22" fill="none" xmlns="http://www.w3.org/2000/svg">
<path d="M4.58333 19.25H17.4167C17.9029 19.25 18.3692 19.0569 18.713 18.713C19.0568 18.3692 19.25 17.9029 19.25 17.4167V7.33335C19.2507 7.21271 19.2276 7.09312 19.182 6.98143C19.1363 6.86975 19.0691 6.76817 18.9842 6.68252L15.3175 3.01585C15.2318 2.93089 15.1303 2.86368 15.0186 2.81806C14.9069 2.77244 14.7873 2.74932 14.6667 2.75002H4.58333C4.0971 2.75002 3.63079 2.94317 3.28697 3.28699C2.94315 3.6308 2.75 4.09712 2.75 4.58335V17.4167C2.75 17.9029 2.94315 18.3692 3.28697 18.713C3.63079 19.0569 4.0971 19.25 4.58333 19.25ZM13.75 17.4167H8.25V12.8333H13.75V17.4167ZM11.9167 6.41668H10.0833V4.58335H11.9167V6.41668ZM4.58333 4.58335H6.41667V8.25002H13.75V4.58335H14.2908L17.4167 7.70918V17.4167H15.5833V12.8333C15.5833 12.3471 15.3902 11.8808 15.0464 11.537C14.7025 11.1932 14.2362 11 13.75 11H8.25C7.76377 11 7.29745 11.1932 6.95364 11.537C6.60982 11.8808 6.41667 12.3471 6.41667 12.8333V17.4167H4.58333V4.58335Z" fill="white"/>
</svg>
