<svg width="32" height="32" viewBox="0 0 32 32" fill="none" xmlns="http://www.w3.org/2000/svg">
<path d="M4.39869 23.4613C4.97469 25.2373 6.72535 26.3707 8.59335 26.3707H8.66669C8.83806 27.2071 9.29294 27.9587 9.95445 28.4985C10.616 29.0383 11.4435 29.3332 12.2974 29.3333C12.9067 29.3333 13.476 29.18 13.98 28.916C14.1904 28.8007 14.3654 28.6303 14.4863 28.4232C14.6073 28.216 14.6696 27.9799 14.6667 27.74V4.036C14.6694 3.73054 14.5668 3.43346 14.3762 3.19476C14.1855 2.95605 13.9185 2.79028 13.62 2.72534C12.9511 2.59541 12.258 2.68961 11.648 2.99334C10.656 3.468 10.0747 4.528 10.0747 5.63067V5.704C9.3323 5.55248 8.56131 5.63228 7.86569 5.93263C7.17008 6.23298 6.5833 6.73944 6.18451 7.38369C5.78573 8.02794 5.59411 8.779 5.63551 9.53555C5.6769 10.2921 5.94932 11.0178 6.41602 11.6147C5.3708 11.7784 4.41852 12.3104 3.73101 13.1145C3.0435 13.9187 2.66602 14.942 2.66669 16C2.66669 17.5707 3.48135 18.948 4.71069 19.7493C4.13735 20.7773 3.94935 22.0773 4.39869 23.4613ZM25.584 11.6147C26.0507 11.0178 26.3231 10.2921 26.3645 9.53555C26.4059 8.779 26.2143 8.02794 25.8155 7.38369C25.4167 6.73944 24.83 6.23298 24.1343 5.93263C23.4387 5.63228 22.6677 5.55248 21.9254 5.704V5.63067C21.9254 4.52934 21.3427 3.468 20.3507 2.99334C19.7412 2.68952 19.0485 2.59531 18.38 2.72534C18.0816 2.79051 17.8148 2.95634 17.6242 3.195C17.4336 3.43365 17.3309 3.7306 17.3334 4.036V27.7387C17.3334 28.2253 17.5894 28.688 18.0214 28.9147C18.5254 29.18 19.0934 29.3333 19.7027 29.3333C20.5567 29.3331 21.3844 29.0381 22.046 28.498C22.7075 27.9579 23.1623 27.206 23.3334 26.3693H23.408C25.2747 26.3693 27.0267 25.236 27.6027 23.46C28.052 22.076 27.864 20.776 27.2907 19.748C27.9169 19.3434 28.4319 18.7885 28.7887 18.1338C29.1455 17.4791 29.3327 16.7456 29.3334 16C29.334 14.942 28.9565 13.9187 28.269 13.1145C27.5815 12.3104 26.6292 11.7784 25.584 11.6147Z" fill="#F79322"/>
</svg>
