<svg width="90" height="90" viewBox="0 0 90 90" fill="none" xmlns="http://www.w3.org/2000/svg">
<path d="M72.2813 26.1562L52.5938 6.46875C52.0313 5.90625 51.4688 5.625 50.625 5.625H22.5C19.4062 5.625 16.875 8.15625 16.875 11.25V78.75C16.875 81.8438 19.4062 84.375 22.5 84.375H67.5C70.5938 84.375 73.125 81.8438 73.125 78.75V28.125C73.125 27.2812 72.8438 26.7188 72.2813 26.1562ZM50.625 12.375L66.375 28.125H50.625V12.375ZM67.5 78.75H22.5V11.25H45V28.125C45 31.2188 47.5312 33.75 50.625 33.75H67.5V78.75Z" fill="black"/>
<path d="M28.125 61.875H61.875V67.5H28.125V61.875ZM28.125 45H61.875V50.625H28.125V45Z" fill="black"/>
</svg>
