<svg width="90" height="90" viewBox="0 0 90 90" fill="none" xmlns="http://www.w3.org/2000/svg">
<path d="M69.75 31.5C72.6056 31.4995 75.3544 32.5848 77.4393 34.536C79.5242 36.4872 80.7891 39.1582 80.9776 42.0075L81.0045 42.7455V69.7455C81.005 72.6017 79.919 75.3512 77.9669 77.4362C76.0147 79.5212 73.3426 80.7856 70.4925 80.973L69.7546 80.9955H42.7546C39.8983 80.9959 37.1489 79.91 35.0638 77.9578C32.9788 76.0057 31.7144 73.3336 31.5271 70.4835L31.5046 69.7455V42.7455C31.5041 39.8893 32.5901 37.1398 34.5422 35.0548C36.4944 32.9698 39.1665 31.7054 42.0166 31.518L42.75 31.5H69.75ZM69.75 36H42.759C41.0818 36 39.4646 36.6244 38.2226 37.7516C36.9805 38.8788 36.2027 40.4281 36.0406 42.0975L36.0091 42.7455V69.7455C36.0091 71.4235 36.6342 73.0413 37.7623 74.2834C38.8905 75.5255 40.4408 76.3029 42.111 76.464L42.759 76.4955H69.759C71.437 76.4954 73.0548 75.8704 74.2969 74.7422C75.5391 73.6141 76.3165 72.0637 76.4776 70.3935L76.5001 69.75V42.75C76.5 41.072 75.8749 39.4542 74.7468 38.2121C73.6186 36.97 72.0683 36.1926 70.3981 36.0315L69.75 36ZM56.2546 40.5C56.7812 40.4998 57.2912 40.6844 57.6957 41.0215C58.1003 41.3586 58.3738 41.827 58.4686 42.345L58.5 42.75V53.991H69.7546C70.3168 53.99 70.8591 54.1995 71.2746 54.5783C71.6901 54.9571 71.9487 55.4777 71.9995 56.0377C72.0503 56.5976 71.8896 57.1563 71.5491 57.6037C71.2085 58.0511 70.7128 58.3548 70.1595 58.455L69.7546 58.491H58.5L58.5046 69.741C58.5056 70.3032 58.2961 70.8455 57.9173 71.261C57.5385 71.6765 57.0178 71.9351 56.4579 71.9859C55.8979 72.0367 55.3392 71.876 54.8918 71.5355C54.4444 71.195 54.1407 70.6993 54.0406 70.146L54.0046 69.741L54 58.5H42.7546C42.1923 58.501 41.65 58.2915 41.2345 57.9127C40.819 57.5339 40.5604 57.0133 40.5096 56.4533C40.4588 55.8933 40.6195 55.3346 40.96 54.8872C41.3006 54.4398 41.7963 54.1362 42.3496 54.036L42.7546 54H54L54.0046 42.75C54.0046 42.1533 54.2416 41.581 54.6636 41.159C55.0855 40.737 55.6578 40.5 56.2546 40.5ZM56.9836 16.623L57.1996 17.334L59.7871 26.9955H55.125L52.8526 18.495C52.418 16.8745 51.3956 15.474 49.9847 14.5663C48.5737 13.6587 46.8753 13.309 45.2206 13.5855L44.5861 13.7205L18.5041 20.7135C16.8845 21.148 15.4846 22.1697 14.5771 23.5797C13.6696 24.9896 13.3193 26.6869 13.5946 28.341L13.7296 28.98L20.7226 55.0575C21.0962 56.4528 21.9077 57.6915 23.0376 58.5914C24.1676 59.4914 25.5565 60.005 27.0001 60.057V64.557C24.7019 64.5074 22.474 63.7555 20.6157 62.4024C18.7575 61.0494 17.3579 59.1599 16.6051 56.988L16.3711 56.223L9.38255 30.1455C8.6422 27.3868 8.97889 24.4498 10.3243 21.9302C11.6698 19.4107 13.9232 17.4972 16.6276 16.578L17.3386 16.3665L43.416 9.37799C46.0525 8.67125 48.856 8.94712 51.3041 10.1542C53.7522 11.3613 55.678 13.4173 56.7225 15.939L56.979 16.623H56.9836Z" fill="black"/>
</svg>
