<svg width="18" height="13" viewBox="0 0 18 13" fill="none" xmlns="http://www.w3.org/2000/svg">
<path d="M16.7041 5.4715C17.0986 5.9365 17.0986 6.56425 16.7041 7.0285C15.4616 8.49025 12.4805 11.5 9.00013 11.5C5.51971 11.5 2.53864 8.49025 1.29611 7.0285C1.10419 6.80585 1 6.53194 1 6.25C1 5.96806 1.10419 5.69415 1.29611 5.4715C2.53864 4.00975 5.51971 1 9.00013 1C12.4805 1 15.4616 4.00975 16.7041 5.4715V5.4715Z" stroke="#79766E" stroke-width="2" stroke-linecap="round" stroke-linejoin="round"/>
<path d="M9.00013 8.50003C10.379 8.50003 11.4968 7.49268 11.4968 6.25005C11.4968 5.00741 10.379 4.00006 9.00013 4.00006C7.62123 4.00006 6.50342 5.00741 6.50342 6.25005C6.50342 7.49268 7.62123 8.50003 9.00013 8.50003Z" stroke="#79766E" stroke-width="2" stroke-linecap="round" stroke-linejoin="round"/>
</svg>
