<svg width="18" height="17" viewBox="0 0 18 17" fill="none" xmlns="http://www.w3.org/2000/svg">
<path d="M16.7041 7.26621C17.0986 7.88606 17.0986 8.72285 16.7041 9.3417C15.4616 11.2902 12.4805 15.3022 9.00013 15.3022C5.51971 15.3022 2.53864 11.2902 1.29611 9.3417C1.10419 9.04491 1 8.67978 1 8.30396C1 7.92813 1.10419 7.563 1.29611 7.26621C2.53864 5.31768 5.51971 1.30566 9.00013 1.30566C12.4805 1.30566 15.4616 5.31768 16.7041 7.26621V7.26621Z" stroke="#79766E" stroke-width="2" stroke-linecap="round" stroke-linejoin="round"/>
<path d="M9.00014 11.3033C10.379 11.3033 11.4969 9.96047 11.4969 8.30402C11.4969 6.64757 10.379 5.30475 9.00014 5.30475C7.62124 5.30475 6.50342 6.64757 6.50342 8.30402C6.50342 9.96047 7.62124 11.3033 9.00014 11.3033Z" stroke="#79766E" stroke-width="2" stroke-linecap="round" stroke-linejoin="round"/>
</svg>
